<?xml version="1.0" encoding="utf-8"?>
<!-- Generator: Adobe Illustrator 26.5.0, SVG Export Plug-In . SVG Version: 6.00 Build 0)  -->
<svg version="1.1" xmlns="http://www.w3.org/2000/svg" xmlns:xlink="http://www.w3.org/1999/xlink" x="0px" y="0px"
	 viewBox="0 0 1920 232.83" style="enable-background:new 0 0 1920 232.83;" xml:space="preserve">
<style type="text/css">
	.st0{display:none;}
	.st1{display:inline;fill:#212321;}
	.st2{fill:#5ABB5D;}
	.st3{display:inline;fill:#FFFFFF;}
</style>
<g id="Layer_2" class="st0">
	<rect class="st1" width="1920" height="232.83"/>
</g>
<g id="Layer_3">
	<path class="st2" d="M0,130.9c19.26-23.31,47.19-39.54,79.59-43.37c43.39-5.14,68.95,48,109.53,45
		c57.66-4.26,80.47-86.15,142.3-93.47c80.23-9.5,154.66,32.37,190.49,99.62l0-0.01c8.47,15.9,11.19,34.79,22.43,37.16
		c9.82,2.06,18.02-9.21,27.84-12.61c67.89-23.54,116.68,39.43,183.36,52.42c36.26,7.06,129.22-71.63,129.22-71.63
		c32.11-23.05,70.21-31.6,106.55-26.99l-0.02-0.03c161.08,20.35,172.89-8.51,221.16-51.14c1.56-1.39,3.2-2.71,4.94-3.96
		c20.47-14.69,47.07-14.58,67.08-1.78l0,0c72.62,46.5,150.04,63.04,248.48,35.78c15.09-5.55,32.2-5.81,48.34,0.54
		c4.3,1.69,8.33,3.79,12.07,6.21c7.89,4.82,14.97,11.27,20.7,19.25c2.16,3.01,4.05,6.14,5.68,9.34
		c4.93,9.71,10.91,18.88,18.28,26.91c28.26,30.77,67.11,39.73,132.73,2.57l-0.01,0.02c27.28-15.43,61.03-18.89,92.47-6.51
		c25.7,10.12,45.33,29.03,56.8,51.93l-0.01,26.69H0V130.9z"/>
</g>
<g id="Layer_1" class="st0">
	<path class="st3" d="M0.16,232.83C31.09,127.57,127.31,49.72,242.84,47.23c70.23-1.51,134.5,25.12,182.08,69.55l0-0.03
		c42.45,39.62,51.49,37.92,81.58,35.01c3.6-0.36,7.24-0.59,10.92-0.67c30.87-0.66,59.57,8.99,82.8,25.79
		c27.68,19.87,39.03,25.35,87.71,4.87c26.11-11.79,54.96-18.63,85.41-19.28c34.49-0.74,67.29,6.54,96.62,20.11
		c53,23.22,71.53,18.32,109.97-17.67l0,0.01c33.77-31.63,78.87-51.41,128.78-52.49c17-0.37,33.54,1.47,49.35,5.23
		c36.89,7.98,45.49,8.48,90.1-17.6c38.27-23.34,83.01-37.2,131.05-38.23c75.17-1.62,143.64,28.48,192.63,78.03l0-0.01
		c38.09,38.53,45.29,35.61,66.04,35.41l0,0.01c23.23-0.23,44.74,7.44,61.94,20.54l0,0c18.55,14.1,24.37,19.03,64.53,9.09
		c14.08-3.77,28.83-5.93,44.05-6.26c41.55-0.89,80.19,11.95,111.59,34.38"/>
</g>
</svg>
