<?xml version="1.0" encoding="utf-8"?>
<!-- Generator: Adobe Illustrator 26.3.1, SVG Export Plug-In . SVG Version: 6.00 Build 0)  -->
<svg version="1.1" id="Layer_1" xmlns="http://www.w3.org/2000/svg" xmlns:xlink="http://www.w3.org/1999/xlink" x="0px" y="0px"
	 viewBox="0 0 489.67 769.67" style="enable-background:new 0 0 489.67 769.67;" xml:space="preserve">
<style type="text/css">
	.st0{fill:none;stroke:#DCDBDB;stroke-width:25;stroke-linecap:round;stroke-miterlimit:10;}
	.st1{fill:none;stroke:#DCDBDB;stroke-width:30;stroke-linecap:round;stroke-linejoin:round;stroke-miterlimit:10;}
</style>
<g>
	<path class="st0" d="M416.42,52.28v70.59l-72.03-12.46l-29.02-5.04l-38.18-6.64c0,0-0.41-0.09-1.16-0.23
		c-4.78-1.01-22.7-5.28-13.83-11.31c0.23-0.15,0.49-0.32,0.78-0.49c1.22-0.7,2.49-1.3,3.8-1.86c0.06-0.06,0.14-0.06,0.17-0.09
		l2.93-1.07c0.12-0.03,0.17-0.09,0.26-0.09l74.21-26.99l51.42-18.73C405.78,34.22,416.42,41.61,416.42,52.28z"/>
	<path class="st0" d="M416.36,570.14l-71.8-60.58l-79.89-67.45c-10.41-10.55-8.17-20.32-4.67-26.44c1.86-3.3,4.46-6.03,7.45-8.35
		l77.05-59.08l71.92-55.16L416.36,570.14z"/>
</g>
<path class="st0" d="M344.35,56.62v-0.06l-74.21,26.99c-0.09,0-0.14,0.06-0.26,0.09l-2.93,1.07c-0.06,0.03-0.12,0.03-0.2,0.09
	c-0.81,0.32-1.62,0.72-2.44,1.13c-0.49,0.26-0.93,0.49-1.33,0.72c-0.29,0.17-0.55,0.35-0.78,0.49c-0.09,0.09-0.14,0.14-0.23,0.2
	c-3.22,1.97-6.12,4.41-8.58,7.25c-0.7,0.81-1.36,1.62-1.94,2.46c-4.17,5.65-6.73,12.44-7.1,19.8l-0.03,2.32l0.03,84.53l0.09,221.32
	v0.03l-0.03-0.03v148.79"/>
<path class="st0" d="M172.43,395.66V81.35c0-6.61,4.15-12.49,10.29-14.73L323.4,15.46c10.2-3.74,21.02,3.83,21.02,14.73v24.21"/>
<path class="st1" d="M242.86,85.23"/>
<path class="st0" d="M172.44,395.61v251.64c0,13.77-12.26,14.75-17.28,14.52c-0.78,0-1.39-0.06-1.74-0.09
	c-0.06-0.03-0.12-0.03-0.17-0.03L43.97,627.42c-0.14-0.03-0.29-0.09-0.38-0.09l-4.55-1.42c-5.71-2.17-10.67-5.77-14.55-10.35
	c-0.06-0.03-0.06-0.03-0.09-0.09l-0.09-0.09c-5.42-6.29-8.55-14.49-8.55-23.45V463.12c0-9.71,6.12-18.44,15.31-21.8l125.58-45.71
	C162.1,393.64,167.6,393.78,172.44,395.61z"/>
<path class="st0" d="M416.27,122.75l45.53,7.91c5.97,2.19,9.94,7.89,9.94,14.23v98.21c0,4.06-1.6,7.94-4.47,10.81l-51,39.07"/>
<path class="st0" d="M416.24,570.05"/>
<path class="st0" d="M416.28,569.96l50.85,45.42c2.87,2.87,4.47,6.75,4.47,10.81l-0.87,114.52c0,10.49-10.44,17.83-20.3,14.23
	l-172.85-54.18c-0.36,0-0.64-0.27-1-0.32c-0.05,0-0.05,0-0.09,0l-1.28-0.41l-5.47-1.73c-0.59-0.18-1.14-0.36-1.69-0.55
	c-2.33-0.87-4.56-1.96-6.66-3.24"/>
<path class="st0" d="M416.4,570.16l-71.8-60.61l-79.91-67.43c-10.41-10.56-8.15-20.34-4.67-26.45c1.85-3.3,4.48-6.04,7.45-8.34
	l77.06-59.09l71.91-55.17"/>
<path class="st0" d="M215.82,564.81"/>
<path class="st0" d="M172.31,380.5v266.75c0,0,0.79,19.72-23.16,13.12"/>
<path class="st0" d="M244.35,573.8v67.63l-58.9,21.42c-0.14,0.06-0.26,0.14-0.41,0.14l-2.93,1.1c0,0-0.03,0-0.09,0.03
	c-3.33,1.01-6.93,1.57-10.61,1.57c-3.54,0-6.9-0.49-10.15-1.45l-2.32-0.75c-0.06,0-0.06-0.03-0.09-0.03l-5.74-1.8"/>
<g>
	<path class="st0" d="M315.38,105.31l-38.21-6.64c0,0-0.41-0.09-1.13-0.23c-4.78-1.01-22.7-5.28-13.83-11.31
		c0.23-0.15,0.49-0.32,0.78-0.49c0.41-0.23,0.84-0.46,1.33-0.72c0.81-0.41,1.62-0.81,2.43-1.13c0.09-0.06,0.15-0.06,0.2-0.09
		l2.93-1.07c0.12-0.03,0.17-0.09,0.26-0.09"/>
	<path class="st0" d="M344.57,509.51l-79.92-67.45c-10.41-10.55-8.15-20.32-4.67-26.44c1.86-3.3,4.49-6.03,7.45-8.35l77.08-59.08"/>
</g>
<path class="st0" d="M416.44,122.87l-72.02-12.49l-29.01-5.04l-38.2-6.63c0,0-0.41-0.07-1.15-0.22
	c-4.93-1.04-23.67-5.52-13.04-11.82c-3.63,2.07-6.89,4.74-9.6,7.89c-0.7,0.82-1.37,1.63-1.96,2.48c-4.15,5.63-6.71,12.41-7.08,19.78
	l-0.04,2.33l0.04,84.51L244.46,425v0.04l-0.04-0.04v238.82c0,2.74,0.3,5.41,0.89,7.97c0,0.04,0,0.07,0,0.07
	c0.22,0.85,0.41,1.67,0.67,2.48c0.56,1.74,1.22,3.48,2,5.11c0.41,0.85,0.85,1.67,1.3,2.45c0.07,0.15,0.15,0.3,0.26,0.41
	c0.26,0.44,0.52,0.89,0.81,1.33c0.22,0.33,0.48,0.67,0.74,1c0.11,0.15,0.22,0.3,0.33,0.44c0.52,0.74,1.04,1.48,1.59,2.19
	c2.45,2.89,5.34,5.34,8.56,7.34"/>
</svg>
